HIERARCHY
ROOT joint_Root
{
	OFFSET 0.0 0.0 0.0
	CHANNELS 6 Xposition Yposition Zposition Zrotation Xrotation Yrotation 
	JOINT Hips
	{
		OFFSET -0.726466 93.3139 -2.00062
		CHANNELS 6 Xposition Yposition Zposition Zrotation Xrotation Yrotation 
		JOINT Spine
		{
			OFFSET 15.7357 0.0 0.0
			CHANNELS 6 Xposition Yposition Zposition Zrotation Xrotation Yrotation 
			JOINT Chest
			{
				OFFSET 8.98455 -0.406207 0.0
				CHANNELS 6 Xposition Yposition Zposition Zrotation Xrotation Yrotation 
				JOINT Neck
				{
					OFFSET 16.3773 0.0 0.0
					CHANNELS 6 Xposition Yposition Zposition Zrotation Xrotation Yrotation 
					JOINT Head
					{
						OFFSET 6.45672 0.0 0.0
						CHANNELS 6 Xposition Yposition Zposition Zrotation Xrotation Yrotation 
						End Site
						{
							OFFSET 0.0 0.0 0.0
						}
					}
				}
				JOINT Shoulder_L
				{
					OFFSET 12.9942 -0.242716 4.98039
					CHANNELS 6 Xposition Yposition Zposition Zrotation Xrotation Yrotation 
					JOINT UpperArm_L
					{
						OFFSET 5.34809 0.0 0.0
						CHANNELS 6 Xposition Yposition Zposition Zrotation Xrotation Yrotation 
						JOINT LowerArm_L
						{
							OFFSET 24.3286 1.87007e-05 0.0
							CHANNELS 6 Xposition Yposition Zposition Zrotation Xrotation Yrotation 
							JOINT Hand_L
							{
								OFFSET 22.2916 0.0 0.0
								CHANNELS 6 Xposition Yposition Zposition Zrotation Xrotation Yrotation 
								End Site
								{
									OFFSET 0.0 0.0 0.0
								}
							}
						}
					}
				}
				JOINT Shoulder_R
				{
					OFFSET 12.9945 -0.242716 -4.98039
					CHANNELS 6 Xposition Yposition Zposition Zrotation Xrotation Yrotation 
					JOINT UpperArm_R
					{
						OFFSET -5.34813 0.0 0.0
						CHANNELS 6 Xposition Yposition Zposition Zrotation Xrotation Yrotation 
						JOINT LowerArm_R
						{
							OFFSET -24.3289 0.000322201 0.0
							CHANNELS 6 Xposition Yposition Zposition Zrotation Xrotation Yrotation 
							JOINT Hand_R
							{
								OFFSET -22.2915 -0.000108084 0.0
								CHANNELS 6 Xposition Yposition Zposition Zrotation Xrotation Yrotation 
								End Site
								{
									OFFSET 0.0 0.0 0.0
								}
							}
						}
					}
				}
			}
		}
		JOINT UpperLeg_L
		{
			OFFSET -2.19248 -6.46944 0.0
			CHANNELS 6 Xposition Yposition Zposition Zrotation Xrotation Yrotation 
			JOINT LowerLeg_L
			{
				OFFSET 39.0811 0.0 -1.23785e-05
				CHANNELS 6 Xposition Yposition Zposition Zrotation Xrotation Yrotation 
				JOINT Foot_L
				{
					OFFSET 40.9854 0.0 -1.26872e-05
					CHANNELS 6 Xposition Yposition Zposition Zrotation Xrotation Yrotation 
					JOINT Toes_L
					{
						OFFSET 11.7543 0.0 0.0
						CHANNELS 6 Xposition Yposition Zposition Zrotation Xrotation Yrotation 
						End Site
						{
							OFFSET 0.0 0.0 0.0
						}
					}
				}
			}
		}
		JOINT UpperLeg_R
		{
			OFFSET -2.19251 6.46944 0.0
			CHANNELS 6 Xposition Yposition Zposition Zrotation Xrotation Yrotation 
			JOINT LowerLeg_R
			{
				OFFSET -39.0811 -0.00228153 -0.0401928
				CHANNELS 6 Xposition Yposition Zposition Zrotation Xrotation Yrotation 
				JOINT Foot_R
				{
					OFFSET -40.9854 0.0 0.0
					CHANNELS 6 Xposition Yposition Zposition Zrotation Xrotation Yrotation 
					JOINT Toes_R
					{
						OFFSET -11.7543 0.0 0.0
						CHANNELS 6 Xposition Yposition Zposition Zrotation Xrotation Yrotation 
						End Site
						{
							OFFSET 0.0 0.0 0.0
						}
					}
				}
			}
		}
	}
}
MOTION
Frames:	6
Frame Time:	0.0333333
0.000000 0.000000 0.000000 0.000000 0.000000 -0.000000 -1.254480 92.879200 -1.035190 89.000400 -3.311130 2.524930 15.735700 0.000005 -0.000001 95.537000 86.263600 -95.492900 8.984550 -0.406207 -0.000000 -0.328437 0.717751 0.090191 16.377300 -0.000001 -0.000001 2.146250 -1.423750 3.630440 6.456720 -0.000001 -0.000000 5.890450 0.177399 -5.202770 12.994200 -0.242716 4.980390 -90.525700 1.595420 -71.759600 5.348090 -0.000007 -0.000001 -68.783200 39.237900 -10.021800 24.328600 0.000019 0.000005 3.224080 7.851280 -22.409400 22.291600 -0.000001 0.000005 3.789340 5.489820 -6.128570 12.994500 -0.242716 -4.980390 87.454400 8.505000 -73.268600 -5.348130 -0.000001 -0.000004 -65.469000 37.767700 -11.922900 -24.328900 0.000322 -0.000009 5.168630 13.732300 -20.862900 -22.291500 -0.000108 -0.000004 4.297330 5.312990 -0.293749 -2.192480 -6.469440 -0.000000 -175.773000 -8.096460 -1.710240 39.081100 -0.000007 -0.000012 -0.076595 0.244277 17.409200 40.985400 -0.000006 -0.000013 -1.431050 2.463280 -63.136400 11.754300 -0.000000 0.000003 -0.000000 -0.000006 -16.577700 -2.192510 6.469440 -0.000001 179.179000 10.211200 -179.109000 -39.081100 -0.002282 -0.040193 -0.049300 0.204414 14.438600 -40.985400 0.000008 0.000006 1.437080 7.491960 -63.129000 -11.754300 -0.000006 -0.000006 -0.003598 -0.047190 -18.492500
0.000000 0.000000 0.000000 0.000000 0.000000 -0.000000 -1.210010 92.899400 -1.101520 88.979500 -3.584750 2.447370 15.735700 0.000005 -0.000001 95.819800 86.277400 -95.811200 8.984550 -0.406207 -0.000000 -0.359278 0.754157 0.019500 16.377300 -0.000001 -0.000001 2.176950 -1.254540 3.531470 6.456720 -0.000001 -0.000000 5.797320 0.388967 -5.196230 12.994200 -0.242716 4.980390 -90.512900 1.549050 -71.678700 5.348090 -0.000007 -0.000001 -68.889700 38.955400 -9.900940 24.328600 0.000019 0.000005 3.190350 7.803220 -22.319900 22.291600 -0.000001 0.000005 3.838390 5.490390 -6.151010 12.994500 -0.242716 -4.980390 87.368100 8.686410 -73.071600 -5.348130 -0.000001 -0.000004 -64.785700 35.539200 -12.301100 -24.328900 0.000322 -0.000009 6.182410 14.380500 -23.568100 -22.291500 -0.000108 -0.000004 1.379230 5.288130 0.404751 -2.192480 -6.469440 -0.000000 -175.796000 -8.229170 -1.727900 39.081100 -0.000007 -0.000012 -0.076243 0.245110 17.278600 40.985400 -0.000006 -0.000013 -1.429100 2.304460 -63.055200 11.754300 -0.000000 0.000003 -0.000000 -0.000005 -16.577700 -2.192510 6.469440 -0.000001 179.190000 10.114000 -179.210000 -39.081100 -0.002282 -0.040193 -0.047194 0.197842 14.326200 -40.985400 0.000008 0.000006 1.495530 7.690710 -63.004700 -11.754300 -0.000006 -0.000006 -0.003513 -0.046276 -18.455300
0.000000 0.000000 0.000000 0.000000 0.000000 -0.000000 -1.153010 92.916200 -1.167820 88.920900 -3.967820 2.319230 15.735700 0.000005 -0.000001 95.644700 86.293700 -95.645000 8.984550 -0.406207 -0.000000 -0.389346 0.728956 0.001846 16.377300 -0.000001 -0.000001 2.138410 -1.116260 3.450700 6.456720 -0.000001 -0.000000 5.659890 0.588491 -5.375020 12.994200 -0.242716 4.980390 -90.501600 1.501460 -71.524200 5.348090 -0.000007 -0.000001 -69.042900 38.762000 -9.760560 24.328600 0.000019 0.000005 3.230100 7.931390 -22.243900 22.291600 -0.000001 0.000005 3.825380 5.491460 -6.193230 12.994500 -0.242716 -4.980390 87.301300 8.740000 -72.765500 -5.348130 -0.000001 -0.000004 -63.816800 32.232100 -13.063500 -24.328900 0.000322 -0.000009 7.127520 13.287100 -28.553800 -22.291500 -0.000108 -0.000004 0.345460 5.264970 1.033820 -2.192480 -6.469440 -0.000000 -175.778000 -8.547140 -1.817270 39.081100 -0.000007 -0.000012 -0.075039 0.242130 17.218900 40.985400 -0.000006 -0.000013 -1.402390 2.256940 -63.011900 11.754300 -0.000000 0.000003 -0.000001 -0.000011 -16.577900 -2.192510 6.469440 -0.000001 179.246000 9.874440 -179.358000 -39.081100 -0.002282 -0.040193 -0.045726 0.193923 14.196600 -40.985400 0.000008 0.000006 1.511450 7.860080 -62.860700 -11.754300 -0.000006 -0.000006 -0.003834 -0.049700 -18.594700
0.000000 0.000000 0.000000 0.000000 0.000000 -0.000000 -1.074140 92.941400 -1.262600 88.859300 -4.457330 2.172300 15.735700 0.000005 -0.000001 95.573600 86.332600 -95.582600 8.984550 -0.406207 -0.000000 -0.465915 0.712871 -0.015026 16.377300 -0.000001 -0.000001 2.212510 -0.995754 3.390960 6.456720 -0.000001 -0.000000 5.443310 0.778416 -5.520000 12.994200 -0.242716 4.980390 -90.491600 1.461230 -71.402800 5.348090 -0.000007 -0.000001 -69.173200 38.684300 -9.552110 24.328600 0.000019 0.000005 3.255020 8.000110 -22.226400 22.291600 -0.000001 0.000005 3.822910 5.490340 -6.149170 12.994500 -0.242716 -4.980390 87.245900 8.696690 -72.351800 -5.348130 -0.000001 -0.000004 -62.495300 28.643600 -14.150400 -24.328900 0.000322 -0.000009 8.292040 11.483900 -36.209500 -22.291500 -0.000108 -0.000004 1.872940 5.271860 0.848116 -2.192480 -6.469440 -0.000000 -175.804000 -8.853010 -1.916840 39.081100 -0.000007 -0.000012 -0.073702 0.239340 17.115500 40.985400 -0.000006 -0.000013 -1.378560 2.011990 -62.934000 11.754300 -0.000000 0.000003 -0.000000 -0.000002 -16.577500 -2.192510 6.469440 -0.000001 179.281000 9.749190 -179.518000 -39.081100 -0.002282 -0.040193 -0.043286 0.186997 13.998300 -40.985400 0.000008 0.000006 1.507450 8.207500 -62.649000 -11.754300 -0.000006 -0.000006 -0.003607 -0.047287 -18.496400
0.000000 0.000000 0.000000 0.000000 0.000000 -0.000000 -0.962577 92.965700 -1.368330 88.763400 -5.159430 2.060430 15.735700 0.000005 -0.000001 95.420500 86.358200 -95.433500 8.984550 -0.406207 -0.000000 -0.514851 0.688831 -0.022892 16.377300 -0.000001 -0.000001 2.278870 -0.852459 3.354660 6.456720 -0.000001 -0.000000 5.240940 1.039980 -5.623040 12.994200 -0.242716 4.980390 -90.503800 1.482740 -71.233000 5.348090 -0.000007 -0.000001 -69.246000 38.575700 -9.282320 24.328600 0.000019 0.000005 3.288650 8.077280 -22.241800 22.291600 -0.000001 0.000005 3.767350 5.489070 -6.099460 12.994500 -0.242716 -4.980390 87.236800 8.524960 -71.965600 -5.348130 -0.000001 -0.000004 -60.863800 25.244800 -16.189200 -24.328900 0.000322 -0.000009 10.082600 10.092600 -45.419100 -22.291500 -0.000108 -0.000004 5.053580 5.274290 0.781456 -2.192480 -6.469440 -0.000000 -175.808000 -9.186110 -1.966440 39.081100 -0.000007 -0.000012 -0.072560 0.236713 17.042000 40.985400 -0.000006 -0.000013 -1.363250 1.634590 -62.891700 11.754300 -0.000000 0.000003 -0.000000 -0.000003 -16.577600 -2.192510 6.469440 -0.000001 179.326000 9.478320 -179.676000 -39.081100 -0.002282 -0.040193 -0.040013 0.176264 13.815500 -40.985400 0.000008 0.000006 1.556170 8.679500 -62.427600 -11.754300 -0.000006 -0.000006 -0.003787 -0.049212 -18.574800
0.000000 0.000000 0.000000 0.000000 0.000000 -0.000000 -0.825034 92.987300 -1.453240 88.666000 -6.111410 1.981070 15.735700 0.000005 -0.000001 96.199000 86.377900 -96.220000 8.984550 -0.406207 -0.000000 -0.563962 0.783611 -0.037958 16.377300 -0.000001 -0.000001 2.365450 -0.693892 3.374400 6.456720 -0.000001 -0.000000 5.085480 1.263750 -5.699720 12.994200 -0.242716 4.980390 -90.513900 1.501630 -71.106200 5.348090 -0.000007 -0.000001 -69.361300 38.397100 -9.005850 24.328600 0.000019 0.000005 3.303190 8.154700 -22.140500 22.291600 -0.000001 0.000005 3.801310 5.490340 -6.148920 12.994500 -0.242716 -4.980390 87.279300 8.236720 -71.649200 -5.348130 -0.000001 -0.000004 -59.403600 21.521500 -18.875000 -24.328900 0.000322 -0.000009 14.057200 9.711000 -56.031300 -22.291500 -0.000108 -0.000004 7.859970 5.262800 1.090940 -2.192480 -6.469440 -0.000000 -175.823000 -9.722650 -1.934540 39.081100 -0.000007 -0.000012 -0.070859 0.232180 16.971600 40.985400 -0.000006 -0.000013 -1.338630 1.176750 -62.887100 11.754300 -0.000000 0.000003 -0.000000 -0.000004 -16.577600 -2.192510 6.469440 -0.000001 179.356000 8.983200 -179.817000 -39.081100 -0.002282 -0.040193 -0.036945 0.165646 13.666400 -40.985400 0.000008 0.000006 1.638080 9.160990 -62.232900 -11.754300 -0.000006 -0.000006 -0.004090 -0.052369 -18.703400
